nColumns=19
nRows=39
DataType=double
version=3
OpenSimVersion=4.1
endheader
time	ground_force_calcn_r_vx	ground_force_calcn_r_vy	ground_force_calcn_r_vz	ground_force_calcn_r_px	ground_force_calcn_r_py	ground_force_calcn_r_pz	ground_force_calcn_r_mx	ground_force_calcn_r_my	ground_force_calcn_r_mz	ground_force_calcn_l_vx	ground_force_calcn_l_vy	ground_force_calcn_l_vz	ground_force_calcn_l_px	ground_force_calcn_l_py	ground_force_calcn_l_pz	ground_force_calcn_l_mx	ground_force_calcn_l_my	ground_force_calcn_l_mz
12.16	7.06071	457.213	-35.103	-0.261462	0	-0.410656	-0.137425	-8.89887	0.683221	-12.3459	412.399	30.219	-0.228774	0	-0.859386	-0.321637	10.7439	0.787269
12.17	7.63108	455.224	-35.0463	-0.261981	0	-0.410717	-0.148782	-8.87544	0.683292	-12.2206	409.464	30.0591	-0.22899	0	-0.859376	-0.319898	10.7185	0.786855
12.18	8.21205	453.101	-34.9288	-0.262515	0	-0.410801	-0.16024	-8.84124	0.681557	-12.0243	406.736	29.9419	-0.229264	0	-0.859368	-0.31623	10.6969	0.787451
12.19	8.78538	450.877	-34.7676	-0.263055	0	-0.410905	-0.171421	-8.79754	0.678388	-11.7768	404.248	29.8685	-0.22959	0	-0.859362	-0.311127	10.6797	0.789089
12.2	9.33133	448.606	-34.5814	-0.263589	0	-0.41102	-0.181925	-8.7461	0.674206	-11.4988	402.024	29.8407	-0.229961	0	-0.859359	-0.305114	10.6675	0.791804
12.21	9.83098	446.356	-34.3887	-0.264108	0	-0.411141	-0.191377	-8.68909	0.669435	-11.2097	400.087	29.8605	-0.230372	0	-0.859358	-0.29869	10.6605	0.795649
12.22	10.2685	444.202	-34.2063	-0.264603	0	-0.411264	-0.199471	-8.62885	0.664476	-10.9245	398.461	29.9294	-0.230816	0	-0.859361	-0.292242	10.6592	0.800642
12.23	10.6311	442.223	-34.0504	-0.265066	0	-0.411381	-0.205968	-8.56766	0.659694	-10.6525	397.171	30.0474	-0.231288	0	-0.859365	-0.286008	10.6637	0.806743
12.24	10.9077	440.499	-33.936	-0.265488	0	-0.411485	-0.210667	-8.50762	0.655426	-10.3969	396.245	30.2128	-0.231783	0	-0.859371	-0.280067	10.6739	0.813861
12.25	11.0892	439.112	-33.8772	-0.265865	0	-0.411572	-0.213409	-8.4506	0.651958	-10.157	395.722	30.4237	-0.232296	0	-0.859376	-0.274386	10.6903	0.821884
12.26	11.1713	438.152	-33.8874	-0.266194	0	-0.411638	-0.214125	-8.39827	0.649536	-9.92793	395.649	30.6782	-0.232826	0	-0.859381	-0.268829	10.7134	0.830705
12.27	11.1547	437.714	-33.9798	-0.266473	0	-0.411678	-0.212844	-8.35204	0.64837	-9.70197	396.085	30.9752	-0.233375	0	-0.859385	-0.263177	10.7443	0.840236
12.28	11.0441	437.893	-34.1662	-0.266703	0	-0.411693	-0.209666	-8.31317	0.648628	-9.47136	397.093	31.3154	-0.233942	0	-0.859388	-0.25721	10.7837	0.850418
12.29	10.8457	438.783	-34.4575	-0.266883	0	-0.411676	-0.204732	-8.2828	0.650445	-9.23019	398.737	31.7012	-0.23453	0	-0.859393	-0.25075	10.8322	0.861205
12.3	10.5672	440.476	-34.8637	-0.267015	0	-0.41163	-0.19821	-8.26201	0.653938	-8.97236	401.073	32.1356	-0.235132	0	-0.8594	-0.243614	10.8898	0.872533
12.31	10.2185	443.052	-35.3937	-0.267098	0	-0.41155	-0.19032	-8.25183	0.659207	-8.68875	404.148	32.6199	-0.23575	0	-0.859413	-0.235541	10.956	0.884285
12.32	9.81226	446.567	-36.0535	-0.267139	0	-0.411439	-0.18134	-8.25299	0.666304	-8.36799	407.987	33.1537	-0.236376	0	-0.859435	-0.226221	11.0296	0.89628
12.33	9.36499	451.036	-36.8446	-0.267141	0	-0.411296	-0.171623	-8.2657	0.675215	-7.99869	412.595	33.7357	-0.237004	0	-0.859468	-0.215356	11.1087	0.908295
12.34	8.8985	456.429	-37.7635	-0.267112	0	-0.411128	-0.161611	-8.28946	0.685844	-7.57004	417.95	34.3643	-0.237623	0	-0.859515	-0.202682	11.1903	0.920078
12.35	8.43858	462.668	-38.8021	-0.267059	0	-0.410935	-0.151803	-8.32298	0.698016	-7.07342	423.992	35.0361	-0.238218	0	-0.859581	-0.188029	11.2707	0.931345
12.36	8.0128	469.629	-39.9482	-0.266992	0	-0.410725	-0.142712	-8.36433	0.711497	-6.50671	430.617	35.7448	-0.23877	0	-0.859672	-0.171432	11.3455	0.941769
12.37	7.6482	477.157	-41.1862	-0.266922	0	-0.410498	-0.134818	-8.41107	0.72601	-5.87815	437.679	36.4819	-0.239259	0	-0.859793	-0.153232	11.4094	0.95101
12.38	7.36744	485.061	-42.4978	-0.266853	0	-0.41026	-0.128502	-8.46038	0.741242	-5.20733	445.006	37.239	-0.239663	0	-0.859951	-0.134069	11.4573	0.958766
12.39	7.18798	493.126	-43.8611	-0.266794	0	-0.410016	-0.124033	-8.50923	0.756853	-4.52233	452.407	38.0099	-0.239963	0	-0.860153	-0.114793	11.4837	0.964829
12.4	7.12093	501.128	-45.2526	-0.266751	0	-0.409768	-0.121558	-8.55455	0.772489	-3.85685	459.676	38.7898	-0.240141	0	-0.860404	-0.0963563	11.4842	0.969093
12.41	7.16813	508.844	-46.6482	-0.266726	0	-0.409519	-0.121055	-8.59333	0.787793	-3.24734	466.607	39.5739	-0.240186	0	-0.860711	-0.07972	11.4549	0.971512
12.42	7.3205	516.07	-48.0245	-0.266722	0	-0.409274	-0.122314	-8.62274	0.802416	-2.72687	473.01	40.3567	-0.240091	0	-0.861076	-0.0656817	11.3933	0.972067
12.43	7.55896	522.63	-49.359	-0.266739	0	-0.409033	-0.124966	-8.6402	0.81601	-2.31913	478.72	41.1323	-0.239857	0	-0.861498	-0.0547336	11.2982	0.970759
12.44	7.85909	528.38	-50.6309	-0.266777	0	-0.408799	-0.128563	-8.64353	0.828248	-2.03824	483.609	41.8952	-0.239491	0	-0.861978	-0.0470759	11.1696	0.967624
12.45	8.19624	533.209	-51.8219	-0.266831	0	-0.408572	-0.132671	-8.63096	0.838833	-1.89091	487.585	42.6408	-0.239003	0	-0.862512	-0.0426933	11.0088	0.96275
12.46	8.54813	537.032	-52.9158	-0.266903	0	-0.408353	-0.136907	-8.6011	0.847499	-1.87589	490.599	43.3654	-0.238414	0	-0.863097	-0.0413667	10.8186	0.956281
12.47	8.89776	539.797	-53.8993	-0.266989	0	-0.408141	-0.140981	-8.55281	0.854007	-1.9838	492.642	44.0685	-0.237743	0	-0.863727	-0.0426954	10.6027	0.948446
12.48	9.23441	541.485	-54.7634	-0.267086	0	-0.407938	-0.144706	-8.48524	0.85816	-2.19897	493.738	44.7544	-0.23701	0	-0.864401	-0.0461653	10.3656	0.939577
12.49	9.54948	542.108	-55.505	-0.267189	0	-0.407742	-0.147933	-8.39793	0.859842	-2.50104	493.937	45.4316	-0.236233	0	-0.865116	-0.0512001	10.1116	0.930052
12.5	9.83318	541.702	-56.127	-0.267289	0	-0.407547	-0.150501	-8.29099	0.859048	-2.86549	493.309	46.1103	-0.235428	0	-0.865866	-0.0571875	9.84513	0.920237
12.51	10.0748	540.326	-56.6379	-0.267373	0	-0.407351	-0.152243	-8.16507	0.855876	-3.26691	491.937	46.8016	-0.234611	0	-0.86665	-0.0635541	9.57011	0.910474
12.52	10.2628	538.06	-57.0509	-0.267425	0	-0.407147	-0.152996	-8.02125	0.850499	-3.68109	489.912	47.5162	-0.233797	0	-0.867465	-0.0698075	9.29059	0.901086
12.53	10.3869	535.007	-57.3824	-0.267429	0	-0.406929	-0.152619	-7.86107	0.843143	-4.08368	487.328	48.2624	-0.233002	0	-0.868306	-0.0755059	9.01053	0.892356
12.54	10.4382	531.284	-57.651	-0.267368	0	-0.406689	-0.151015	-7.6864	0.834072	-4.4491	484.285	49.0463	-0.232245	0	-0.869163	-0.0802359	8.73368	0.88451
